<mxfile host="app.diagrams.net" agent="Mozilla/5.0 (Macintosh; Intel Mac OS X 10_15_7) AppleWebKit/537.36 (KHTML, like Gecko) Chrome/127.0.0.0 Safari/537.36" version="24.7.6">
  <diagram id="C5RBs43oDa-KdzZeNtuy" name="Page-1">
    <mxGraphModel dx="2730" dy="1181" grid="0" gridSize="10" guides="1" tooltips="1" connect="1" arrows="1" fold="1" page="1" pageScale="1" pageWidth="1169" pageHeight="827" background="#000000" math="0" shadow="0">
      <root>
        <mxCell id="WIyWlLk6GJQsqaUBKTNV-0" />
        <mxCell id="WIyWlLk6GJQsqaUBKTNV-1" parent="WIyWlLk6GJQsqaUBKTNV-0" />
        <mxCell id="vLkyQ3vxkpRtqPcBnnap-5" style="edgeStyle=orthogonalEdgeStyle;rounded=0;orthogonalLoop=1;jettySize=auto;html=1;entryX=0;entryY=0.5;entryDx=0;entryDy=0;strokeColor=#FFFFFF;" parent="WIyWlLk6GJQsqaUBKTNV-1" source="WIyWlLk6GJQsqaUBKTNV-3" edge="1">
          <mxGeometry relative="1" as="geometry">
            <mxPoint x="-320" y="110" as="targetPoint" />
          </mxGeometry>
        </mxCell>
        <mxCell id="WIyWlLk6GJQsqaUBKTNV-3" value="TAC Case is opened by the customer" style="rounded=1;whiteSpace=wrap;html=1;fontSize=12;glass=0;strokeWidth=1;shadow=0;fillColor=none;fontColor=#FFFFFF;strokeColor=#FFFFFF;" parent="WIyWlLk6GJQsqaUBKTNV-1" vertex="1">
          <mxGeometry x="-490" y="80" width="120" height="60" as="geometry" />
        </mxCell>
        <mxCell id="vLkyQ3vxkpRtqPcBnnap-11" value="" style="edgeStyle=orthogonalEdgeStyle;shape=connector;rounded=0;orthogonalLoop=1;jettySize=auto;html=1;strokeColor=#FFFFFF;align=center;verticalAlign=middle;fontFamily=Helvetica;fontSize=11;fontColor=#FFFFFF;labelBackgroundColor=none;endArrow=classic;" parent="WIyWlLk6GJQsqaUBKTNV-1" target="WIyWlLk6GJQsqaUBKTNV-12" edge="1">
          <mxGeometry relative="1" as="geometry">
            <mxPoint x="-220" y="185" as="sourcePoint" />
          </mxGeometry>
        </mxCell>
        <mxCell id="vLkyQ3vxkpRtqPcBnnap-18" value="No" style="edgeLabel;html=1;align=center;verticalAlign=middle;resizable=0;points=[];fontFamily=Helvetica;fontSize=11;fontColor=#FFFFFF;labelBackgroundColor=none;" parent="vLkyQ3vxkpRtqPcBnnap-11" vertex="1" connectable="0">
          <mxGeometry x="-0.6862" y="1" relative="1" as="geometry">
            <mxPoint x="-12" y="5" as="offset" />
          </mxGeometry>
        </mxCell>
        <mxCell id="WIyWlLk6GJQsqaUBKTNV-7" value="TAC Engineer will create a ticket in TALOS Jira" style="rounded=1;whiteSpace=wrap;html=1;fontSize=12;glass=0;strokeWidth=1;shadow=0;fillColor=#000000;strokeColor=#FFFFFF;fontColor=#FFFFFF;" parent="WIyWlLk6GJQsqaUBKTNV-1" vertex="1">
          <mxGeometry x="654" y="90" width="120" height="40" as="geometry" />
        </mxCell>
        <mxCell id="WIyWlLk6GJQsqaUBKTNV-12" value="Follow the standard procedure" style="rounded=1;whiteSpace=wrap;html=1;fontSize=12;glass=0;strokeWidth=1;shadow=0;fillColor=#000000;fontColor=#FFFFFF;strokeColor=#FFFFFF;" parent="WIyWlLk6GJQsqaUBKTNV-1" vertex="1">
          <mxGeometry x="-280" y="218" width="120" height="40" as="geometry" />
        </mxCell>
        <mxCell id="vLkyQ3vxkpRtqPcBnnap-25" value="" style="edgeStyle=orthogonalEdgeStyle;shape=connector;rounded=0;orthogonalLoop=1;jettySize=auto;html=1;strokeColor=#FFFFFF;align=center;verticalAlign=middle;fontFamily=Helvetica;fontSize=11;fontColor=#FFFFFF;labelBackgroundColor=none;endArrow=classic;" parent="WIyWlLk6GJQsqaUBKTNV-1" target="vLkyQ3vxkpRtqPcBnnap-24" edge="1">
          <mxGeometry relative="1" as="geometry">
            <mxPoint x="775" y="106" as="sourcePoint" />
          </mxGeometry>
        </mxCell>
        <mxCell id="vLkyQ3vxkpRtqPcBnnap-29" value="" style="edgeStyle=orthogonalEdgeStyle;shape=connector;rounded=0;orthogonalLoop=1;jettySize=auto;html=1;strokeColor=#FFFFFF;align=center;verticalAlign=middle;fontFamily=Helvetica;fontSize=11;fontColor=#FFFFFF;labelBackgroundColor=none;endArrow=classic;" parent="WIyWlLk6GJQsqaUBKTNV-1" source="vLkyQ3vxkpRtqPcBnnap-24" edge="1">
          <mxGeometry relative="1" as="geometry">
            <mxPoint x="1011" y="106" as="targetPoint" />
          </mxGeometry>
        </mxCell>
        <mxCell id="vLkyQ3vxkpRtqPcBnnap-24" value="TALOS creates new signatures to detect what was undetectable" style="rounded=1;whiteSpace=wrap;html=1;fontSize=12;glass=0;strokeWidth=1;shadow=0;fillColor=#000000;fontColor=#FFFFFF;strokeColor=#FFFFFF;" parent="WIyWlLk6GJQsqaUBKTNV-1" vertex="1">
          <mxGeometry x="833" y="72" width="120" height="68" as="geometry" />
        </mxCell>
        <mxCell id="vLkyQ3vxkpRtqPcBnnap-32" value="TAC case can be closed" style="rounded=1;whiteSpace=wrap;html=1;fontSize=12;glass=0;strokeWidth=1;shadow=0;fillColor=#000000;fontColor=#FFFFFF;strokeColor=#FFFFFF;" parent="WIyWlLk6GJQsqaUBKTNV-1" vertex="1">
          <mxGeometry x="1012" y="72" width="120" height="68" as="geometry" />
        </mxCell>
        <mxCell id="99zJedxA1QK_hauv3LOk-0" value="Collect all details as described in section below" style="rounded=1;whiteSpace=wrap;html=1;fontSize=12;glass=0;strokeWidth=1;shadow=0;fillColor=#000000;strokeColor=#FFFFFF;fontColor=#FFFFFF;" vertex="1" parent="WIyWlLk6GJQsqaUBKTNV-1">
          <mxGeometry x="-60" y="90" width="120" height="40" as="geometry" />
        </mxCell>
        <mxCell id="99zJedxA1QK_hauv3LOk-2" value="TAC Engineer confirms if SE connector failed the pentest&amp;nbsp;" style="rhombus;whiteSpace=wrap;html=1;shadow=0;fontFamily=Helvetica;fontSize=12;align=center;strokeWidth=1;spacing=6;spacingTop=-4;fillColor=#000000;fontColor=#FFFFFF;strokeColor=#FFFFFF;" vertex="1" parent="WIyWlLk6GJQsqaUBKTNV-1">
          <mxGeometry x="-320" y="35" width="200" height="150" as="geometry" />
        </mxCell>
        <mxCell id="99zJedxA1QK_hauv3LOk-4" style="edgeStyle=orthogonalEdgeStyle;rounded=0;orthogonalLoop=1;jettySize=auto;html=1;entryX=0;entryY=0.5;entryDx=0;entryDy=0;strokeColor=#FFFFFF;labelBackgroundColor=default;fontColor=#FFFFFF;" edge="1" parent="WIyWlLk6GJQsqaUBKTNV-1" source="99zJedxA1QK_hauv3LOk-3" target="WIyWlLk6GJQsqaUBKTNV-7">
          <mxGeometry relative="1" as="geometry" />
        </mxCell>
        <mxCell id="99zJedxA1QK_hauv3LOk-6" value="If missed detection is SHA based" style="edgeLabel;html=1;align=center;verticalAlign=middle;resizable=0;points=[];" vertex="1" connectable="0" parent="99zJedxA1QK_hauv3LOk-4">
          <mxGeometry x="-0.2632" y="-1" relative="1" as="geometry">
            <mxPoint x="16" y="-18" as="offset" />
          </mxGeometry>
        </mxCell>
        <mxCell id="99zJedxA1QK_hauv3LOk-8" value="" style="edgeStyle=orthogonalEdgeStyle;rounded=0;orthogonalLoop=1;jettySize=auto;html=1;strokeColor=#FFFFFF;" edge="1" parent="WIyWlLk6GJQsqaUBKTNV-1" source="99zJedxA1QK_hauv3LOk-3" target="99zJedxA1QK_hauv3LOk-7">
          <mxGeometry relative="1" as="geometry" />
        </mxCell>
        <mxCell id="99zJedxA1QK_hauv3LOk-11" value="Problem with the device" style="edgeLabel;html=1;align=center;verticalAlign=middle;resizable=0;points=[];fontFamily=Helvetica;fontSize=11;fontColor=#FFFFFF;labelBackgroundColor=default;" vertex="1" connectable="0" parent="99zJedxA1QK_hauv3LOk-8">
          <mxGeometry x="-0.1333" relative="1" as="geometry">
            <mxPoint as="offset" />
          </mxGeometry>
        </mxCell>
        <mxCell id="99zJedxA1QK_hauv3LOk-3" value="BU should assess the product limitations using BEMS" style="rhombus;whiteSpace=wrap;html=1;shadow=0;fontFamily=Helvetica;fontSize=12;align=center;strokeWidth=1;spacing=6;spacingTop=-4;fillColor=#000000;fontColor=#FFFFFF;strokeColor=#FFFFFF;" vertex="1" parent="WIyWlLk6GJQsqaUBKTNV-1">
          <mxGeometry x="277" y="35" width="200" height="150" as="geometry" />
        </mxCell>
        <mxCell id="99zJedxA1QK_hauv3LOk-7" value="Continue working with BU" style="rounded=1;whiteSpace=wrap;html=1;fontSize=12;glass=0;strokeWidth=1;shadow=0;fillColor=#000000;strokeColor=#FFFFFF;fontColor=#FFFFFF;" vertex="1" parent="WIyWlLk6GJQsqaUBKTNV-1">
          <mxGeometry x="317" y="265" width="120" height="40" as="geometry" />
        </mxCell>
        <mxCell id="99zJedxA1QK_hauv3LOk-10" value="Open BEMS" style="rounded=1;whiteSpace=wrap;html=1;fontSize=12;glass=0;strokeWidth=1;shadow=0;fillColor=#000000;strokeColor=#FFFFFF;fontColor=#FFFFFF;" vertex="1" parent="WIyWlLk6GJQsqaUBKTNV-1">
          <mxGeometry x="114" y="90" width="120" height="40" as="geometry" />
        </mxCell>
      </root>
    </mxGraphModel>
  </diagram>
</mxfile>
